<svg version="1.0" xmlns="http://www.w3.org/2000/svg" width="515.173px" height="512px" viewBox="0 0 515.173 512" preserveAspectRatio="xMidYMid meet"><g fill="#ffffff"><path d="M239.641 444.183c-7.02 -0.416 -12.83 -3.589 -17.252 -9.439 -1.904 -2.518 -2.657 -4.125 -3.867 -8.269 -0.317 -1.071 -0.674 -2.082 -0.813 -2.241 -0.119 -0.139 -0.833 -0.456 -1.567 -0.674 -1.527 -0.456 -6.603 -2.499 -8.17 -3.292 -5.473 -2.776 -11.957 -8.269 -15.626 -13.266 -5.453 -7.416 -8.705 -15.368 -10.272 -25.084 -0.297 -1.884 -0.337 -4.759 -0.357 -29.943 0 -29.546 0 -29.13 -0.972 -33.215 -0.892 -3.768 -2.538 -7.158 -5.176 -10.708 -1.13 -1.507 -4.045 -4.442 -7.02 -7.04 -1.031 -0.912 -3.609 -3.292 -5.691 -5.295 -20.325 -19.453 -35.554 -43.942 -42.277 -67.976 -4.065 -14.476 -4.898 -28.475 -2.895 -47.948 0.575 -5.513 2.003 -13.425 3.49 -19.175 4.759 -18.461 13.127 -34.285 25.065 -47.393 9.796 -10.767 21.337 -19.274 35.495 -26.195 14.337 -7 30.082 -11.68 48.682 -14.456 8.309 -1.229 10.827 -1.289 12.77 -0.297 2.241 1.13 3.569 3.193 3.887 6.088 0.119 1.031 0.198 52.469 0.198 138.351 0 75.194 0.059 136.785 0.139 136.864 0.099 0.079 2.459 0.218 5.255 0.297 3.867 0.099 5.176 0.079 5.394 -0.099 0.258 -0.218 0.297 -16.34 0.297 -126.037 0 -88.995 0.059 -126.414 0.218 -127.941 0.912 -9.082 5.493 -17.291 12.671 -22.725 2.082 -1.567 6.921 -3.946 9.538 -4.66 7.178 -2.003 15.308 -1.487 21.634 1.368 6.246 2.816 11.045 6.921 14.674 12.572 0.635 0.991 1.348 2.042 1.586 2.36 0.496 0.635 0.496 0.635 3.748 -0.079 2.499 -0.535 7.416 -0.734 10.609 -0.416 4.819 0.496 8.467 1.567 13.187 3.847 10.272 4.977 18.204 15.011 21.198 26.81 0.952 3.768 1.269 6.524 1.229 10.708 -0.02 2.181 -0.04 4.283 -0.079 4.64 -0.04 0.793 -0.317 0.595 3.47 2.38 5.81 2.717 10.331 6.663 14.139 12.314 2.756 4.085 4.62 8.844 5.394 13.742 0.416 2.637 0.416 8.209 0 11.065 -0.694 4.68 -2.023 9.3 -3.629 12.612 -0.952 1.983 -1.031 2.459 -0.555 2.855 0.178 0.139 0.972 1.031 1.765 1.963 4.263 5.017 7.337 11.283 8.626 17.51 1.249 6.147 0.952 13.583 -0.793 19.512 -1.963 6.623 -5.453 12.453 -10.569 17.609 -2.142 2.161 -2.717 2.855 -2.637 3.173 0.059 0.218 0.337 1.15 0.615 2.082 1.428 4.68 1.804 10.708 1.011 15.963 -1.249 8.09 -5.235 15.586 -11.045 20.722 -1.725 1.507 -4.997 3.807 -6.782 4.719 -0.516 0.278 -1.031 0.654 -1.13 0.833 -0.119 0.198 -0.079 0.932 0.099 1.904 2.836 16.379 -3.431 31.886 -16.459 40.69 -4.363 2.935 -10.292 5.176 -15.269 5.77 -2.28 0.278 -7.357 0.278 -9.003 0 -1.091 -0.159 -1.329 -0.159 -1.586 0.119 -0.278 0.278 -0.317 2.399 -0.436 18.997 -0.079 11.105 -0.218 19.274 -0.357 20.167 -0.734 5.275 -1.745 9.28 -3.431 13.563 -4.561 11.561 -12.592 20.682 -22.864 25.937 -1.725 0.892 -6.365 2.776 -7.872 3.212 -0.615 0.178 -1.269 0.456 -1.428 0.635 -0.178 0.159 -0.496 0.952 -0.734 1.725 -0.694 2.28 -2.062 5.691 -2.756 6.881 -0.793 1.348 -2.756 3.708 -4.283 5.176 -2.439 2.3 -5.235 4.006 -8.269 5.037 -2.935 0.972 -4.105 1.051 -17.291 1.15 -6.762 0.059 -13.444 0.02 -14.872 -0.059m27.325 -9.617c2.855 -0.496 5.493 -2.122 7.674 -4.7 1.507 -1.804 2.697 -4.025 2.38 -4.442 -0.218 -0.238 -3.49 -0.278 -23.974 -0.278 -13.048 0 -23.914 0.059 -24.152 0.119 -0.635 0.178 -0.575 0.714 0.159 2.042q2.112 3.748 5.949 6.068c2.558 1.567 3.847 1.686 18.719 1.586 9.221 -0.079 11.838 -0.139 13.246 -0.397m14.396 -19.235c7.416 -0.754 14.079 -3.906 19.631 -9.3 2.399 -2.34 5.195 -5.77 5.037 -6.187 -0.079 -0.238 -7.337 -0.278 -53.361 -0.238 -39.6 0.04 -53.262 0.119 -53.322 0.278 -0.079 0.218 1.368 2.102 3.51 4.62 0.496 0.575 1.725 1.745 2.756 2.618 5.592 4.759 11.64 7.496 18.263 8.209 3.609 0.397 53.619 0.397 57.486 0m27.504 -20.325c1.17 -0.456 3.787 -7.694 4.739 -13.246 0.278 -1.586 0.317 -2.082 0.119 -2.28 -0.337 -0.337 -121.635 -0.357 -121.992 0 -0.178 0.178 -0.159 0.694 0.099 2.28 0.694 4.125 1.963 8.309 3.45 11.263l0.932 1.884 2.181 0.119c3.728 0.178 109.955 0.159 110.471 -0.02m1.17 -20.206 4.164 -0.119 0.059 -5.334c0.04 -3.768 -0.02 -5.413 -0.178 -5.592 -0.198 -0.238 -9.776 -0.278 -61.353 -0.278s-61.154 0.04 -61.353 0.278c-0.159 0.178 -0.218 1.824 -0.178 5.592l0.059 5.334 1.19 0.119c1.586 0.159 112.275 0.159 117.59 0m-87.726 -21.178c0.377 -0.377 0.456 -125.68 0.079 -125.977 -0.159 -0.119 -1.19 -0.397 -2.32 -0.595s-2.836 -0.555 -3.827 -0.793c-14.575 -3.411 -29.328 -13.94 -36.13 -25.778 -5.037 -8.745 -5.969 -19.017 -2.479 -27.127 2.736 -6.326 8.428 -10.668 15.705 -11.957 2.221 -0.397 8.606 -0.337 10.589 0.099 4.64 1.011 8.765 3.431 12.909 7.555 2.538 2.518 4.244 4.878 5.83 8.13 1.943 3.926 2.796 6.802 3.569 11.799 0.674 4.363 0.813 7.932 0.813 21.436 0 10.351 0.059 12.869 0.258 13.028 0.297 0.258 5.176 0.635 8.09 0.635 1.567 0 1.943 -0.059 2.042 -0.317 0.198 -0.516 0.139 -141.92 -0.059 -142.238 -0.218 -0.357 -2.756 -0.059 -10.331 1.17 -17.093 2.756 -34.722 8.824 -48.047 16.518 -11.343 6.564 -20.266 13.94 -28.158 23.3 -5.235 6.207 -10.133 13.901 -13.524 21.257 -2.161 4.739 -3.312 7.595 -4.6 11.501 -3.411 10.43 -5.394 20.861 -6.246 32.719 -0.377 5.295 -0.317 16.756 0.099 20.563 2.102 19.274 9.974 38.767 23.22 57.466 7.02 9.915 15.189 18.937 25.283 27.94 4.759 4.244 6.167 5.691 8.15 8.348 1.904 2.558 2.816 4.065 4.144 6.861 2.399 5.017 3.45 9.28 3.807 15.249 0.119 2.36 0.159 8.19 0.059 16.379 -0.139 12.334 -0.119 12.731 0.238 12.949 0.575 0.337 30.498 0.218 30.835 -0.119m14.952 -0.059c0.258 -0.218 0.297 -7.297 0.297 -62.364 0 -49.455 -0.059 -62.166 -0.238 -62.324 -0.139 -0.099 -1.785 -0.258 -3.649 -0.337s-3.926 -0.198 -4.6 -0.278c-0.654 -0.079 -1.388 -0.079 -1.626 0.02l-0.416 0.159 0.139 62.503c0.059 34.385 0.178 62.582 0.238 62.662 0.377 0.397 9.379 0.357 9.855 -0.04m76.8 0.159c0.178 -0.178 0.238 -2.181 0.238 -7.753v-7.515l-0.615 -0.575c-0.337 -0.317 -0.694 -0.575 -0.813 -0.575 -0.337 0 -4.204 -2.717 -5.81 -4.085 -2.657 -2.28 -6.445 -6.425 -6.445 -7.079 0 -0.159 0.714 -0.754 1.606 -1.329s2.538 -1.705 3.688 -2.499c1.15 -0.813 2.241 -1.467 2.419 -1.448 0.178 0 0.813 0.635 1.408 1.388 3.926 5.017 10.133 8.745 16.34 9.796 4.957 0.833 11.224 -0.079 15.685 -2.32 4.085 -2.062 8.031 -5.552 10.787 -9.558 1.17 -1.686 2.776 -5.096 3.569 -7.515 3.53 -10.966 0.991 -22.447 -6.762 -30.577 -4.938 -5.176 -11.58 -8.229 -17.847 -8.229 -0.972 0 -1.923 -0.079 -2.122 -0.198 -0.317 -0.159 -0.397 -0.654 -0.595 -3.312 -0.139 -1.725 -0.218 -3.807 -0.178 -4.62l0.059 -1.487 1.289 -0.059c1.824 -0.099 5.275 0.297 7.912 0.873 9.34 2.082 17.391 7.674 22.665 15.705 0.833 1.269 1.705 2.538 1.923 2.816l0.397 0.496 0.952 -0.496c2.637 -1.368 5.989 -4.382 7.654 -6.881 2.974 -4.481 4.402 -8.646 4.68 -13.742 0.278 -5.295 -0.278 -8.408 -2.261 -12.631 -2.062 -4.382 -4.501 -7.396 -8.09 -10.054 -0.833 -0.615 -1.527 -1.17 -1.527 -1.229 0 -0.159 0.575 -1.249 1.289 -2.459 0.357 -0.595 1.249 -2.102 1.963 -3.312 0.734 -1.229 1.448 -2.241 1.567 -2.241 0.694 0.02 4.263 2.895 6.921 5.592 1.705 1.725 3.014 2.895 3.173 2.836 0.139 -0.059 0.754 -0.654 1.348 -1.309 4.224 -4.719 6.98 -10.272 8.031 -16.24 0.377 -2.161 0.397 -7.654 0.02 -9.935 -0.892 -5.453 -3.391 -10.767 -7.099 -15.07 -2.3 -2.697 -7.238 -6.127 -10.648 -7.396 -9.697 -3.649 -20.345 -1.229 -27.88 6.326 -3.014 3.014 -5.156 6.385 -6.742 10.609 -0.813 2.122 -0.793 2.102 -2.419 1.626 -0.734 -0.218 -2.28 -0.635 -3.431 -0.932 -1.15 -0.278 -2.518 -0.654 -3.054 -0.833l-0.952 -0.297 0.119 -0.754c0.178 -1.091 1.309 -3.966 2.459 -6.266 4.204 -8.368 11.382 -14.991 19.73 -18.204 4.481 -1.745 8.071 -2.38 13.226 -2.38 5.493 0.02 9.915 0.991 15.011 3.351 2.201 1.011 2.181 1.011 2.994 -0.892 2.082 -5.037 2.935 -13.325 1.864 -18.144 -0.555 -2.439 -0.932 -3.47 -2.3 -6.207 -1.19 -2.38 -2.875 -4.739 -4.521 -6.306 -2.518 -2.419 -7.436 -5.592 -8.408 -5.413 -0.258 0.059 -0.873 1.031 -1.963 3.153 -2.836 5.532 -4.918 8.408 -8.745 12.096 -3.331 3.232 -6.286 5.255 -10.43 7.238 -3.807 1.785 -9.003 3.232 -12.017 3.331l-1.329 0.04 -0.238 -3.47c-0.119 -1.904 -0.218 -4.006 -0.238 -4.68l-0.02 -1.19 2.399 -0.456c5.473 -1.011 9.617 -2.935 13.722 -6.385 6.663 -5.552 10.807 -13.96 11.343 -22.983 0.357 -6.108 -0.972 -12.235 -3.787 -17.609 -1.408 -2.677 -2.38 -4.105 -4.303 -6.246 -7.952 -8.864 -18.779 -11.957 -30.28 -8.626 -2.677 0.773 -4.7 1.785 -7.317 3.668 -3.847 2.776 -7.634 7.02 -9.776 10.946 -0.178 0.337 -0.496 0.615 -0.694 0.615s-2.181 -0.892 -4.382 -1.983l-4.045 -1.983 0.932 -1.725c2.935 -5.433 8.13 -11.045 13.325 -14.396 1.388 -0.892 1.388 -1.071 0.218 -2.855 -2.142 -3.212 -6.623 -7.079 -9.835 -8.507 -6.068 -2.697 -12.929 -2.657 -18.779 0.119 -6.207 2.935 -10.49 8.804 -11.937 16.32 -0.337 1.725 -0.357 8.031 -0.357 128.139v126.315l1.091 0.119c0.595 0.059 10.906 0.119 22.923 0.139 16.736 0.04 21.872 -0.02 22.051 -0.198m-91.692 -130.895c0.337 -0.238 0.337 -1.011 0.258 -14.218 -0.099 -15.963 -0.238 -17.728 -1.725 -23.637 -1.329 -5.255 -3.49 -9.181 -7.02 -12.75 -5.017 -5.076 -10.569 -7.377 -16.875 -6.96 -7.119 0.456 -12.354 3.688 -15.13 9.34 -2.3 4.7 -2.538 11.6 -0.595 17.747 0.714 2.28 2.776 6.583 3.966 8.269 7.496 10.629 20.543 19.076 33.77 21.852 1.527 0.317 2.836 0.595 2.895 0.595 0.059 0.02 0.258 -0.099 0.456 -0.238"/><path d="M320.446 303.413c-3.966 -0.853 -6.445 -2.023 -10.133 -4.799 -1.428 -1.071 -3.53 -3.272 -4.521 -4.68 -0.734 -1.071 -1.091 -0.873 -2.062 1.091 -0.991 2.003 -3.668 6.187 -4.561 7.139 -0.337 0.337 -0.754 0.635 -0.952 0.635 -0.178 0 -0.932 -0.674 -1.666 -1.487l-1.329 -1.487 1.388 -1.705c1.606 -1.963 3.51 -5.532 4.263 -7.912 1.091 -3.45 1.091 -8.606 0 -12.096 -1.983 -6.425 -7.277 -11.719 -13.583 -13.603 -2.062 -0.615 -2.062 -0.615 -1.765 -2.637 0.159 -0.972 0.377 -1.785 0.555 -1.923 0.754 -0.654 6.861 1.923 9.974 4.204 3.728 2.736 6.544 6.345 8.348 10.748 0.972 2.36 1.547 4.997 1.765 8.209 0.198 2.717 0.258 3.054 0.892 4.363 0.991 2.122 2.36 4.144 3.847 5.691 1.309 1.348 3.649 3.252 4.997 4.025 1.269 0.734 3.807 1.586 5.731 1.943 1.031 0.178 2.082 0.377 2.34 0.416 0.436 0.079 0.456 0.139 0.397 2.122l-0.059 2.023 -1.091 0.04c-0.595 0.02 -1.844 -0.119 -2.776 -0.317"/><path d="M312.336 251.935c-2.736 -2.538 -3.906 -5.949 -3.371 -9.875 0.278 -2.102 0.278 -2.102 -1.765 -2.717 -6.385 -1.864 -12.215 -6.286 -16.28 -12.314 -2.38 -3.549 -5.513 -10.728 -5.334 -12.215 0.079 -0.615 1.011 -1.011 2.855 -1.19l1.229 -0.119 0.635 2.042c2.637 8.487 7.575 14.674 14.575 18.223 3.609 1.824 6.921 2.499 11.481 2.36 6.504 -0.218 11.799 -2.34 16.816 -6.722 0.714 -0.654 1.408 -1.17 1.507 -1.17 0.297 0 3.014 2.578 3.014 2.855 0 0.535 -2.756 2.776 -5.651 4.581 -5.037 3.153 -10.51 4.858 -15.646 4.858 -1.329 0 -2.142 0.079 -2.38 0.258 -0.714 0.516 -0.952 3.45 -0.416 5.255 0.198 0.635 0.694 1.467 1.289 2.201 0.555 0.654 0.991 1.309 0.991 1.448 0 0.476 -1.785 3.331 -2.082 3.331 -0.139 0 -0.813 -0.496 -1.467 -1.091"/><path d="M349.893 219.375c-1.428 -0.178 -2.657 -0.496 -2.855 -0.734 -0.159 -0.178 -0.059 -0.734 0.357 -1.983 0.317 -0.952 0.615 -1.785 0.694 -1.844 0.059 -0.059 0.734 -0.02 1.487 0.119 3.074 0.496 5.651 0.099 8.547 -1.309s5.136 -3.768 6.564 -6.901c0.317 -0.694 0.635 -1.309 0.734 -1.368 0.238 -0.139 3.49 0.635 3.867 0.932 0.278 0.218 0.238 0.377 -0.218 1.527 -2.102 5.136 -6.266 9.102 -11.263 10.708 -2.558 0.813 -5.612 1.15 -7.912 0.853"/><path d="M299.229 188.203c-5.552 -1.804 -9.816 -6.802 -12.711 -14.892 -0.654 -1.804 -1.586 -5.592 -1.527 -6.127 0.059 -0.476 0.178 -0.535 1.547 -0.773 0.813 -0.139 1.765 -0.218 2.082 -0.198 0.595 0.059 0.595 0.099 1.229 2.518 1.923 7.535 5.076 12.572 9.161 14.634 1.428 0.734 1.527 0.754 3.609 0.754h2.122l1.904 -0.952c1.031 -0.535 1.963 -0.932 2.042 -0.892 0.297 0.119 2.637 2.717 2.637 2.915 0 0.238 -1.646 1.428 -2.677 1.963 -0.436 0.218 -1.527 0.615 -2.439 0.912 -2.062 0.654 -5.215 0.714 -6.98 0.139"/><path d="M309.818 153.58c-0.139 -0.555 0.04 -6.583 0.238 -8.309l0.119 -0.952 -1.646 0.159c-3.312 0.357 -5.731 0.02 -8.011 -1.11 -1.487 -0.714 -2.875 -1.765 -2.875 -2.181 0.02 -0.337 2.439 -2.974 2.756 -2.974 0.099 0 0.615 0.278 1.11 0.615 2.875 1.943 6.861 1.785 9.697 -0.357 0.793 -0.595 1.21 -1.19 2.142 -2.915 1.745 -3.232 2.994 -4.957 5.314 -7.277 2.34 -2.34 5.374 -4.501 8.09 -5.77 1.686 -0.813 3.688 -1.547 4.125 -1.547 0.218 0 0.912 1.923 1.19 3.371 0.119 0.555 0.059 0.615 -0.635 0.912 -4.283 1.745 -7.218 3.668 -9.835 6.405 -2.875 2.994 -4.838 6.286 -6.088 10.133 -0.833 2.598 -1.051 4.105 -1.19 8.209l-0.119 3.569 -0.555 0.139c-0.317 0.079 -1.269 0.218 -2.122 0.297l-1.567 0.119z"/></g><g opacity="0.5" transform="rotate(-45 1299 1291)"><text x="50%" y="50%" font-size="20" text-anchor="middle" fill="lightgray" dominant-baseline="middle">
    generated by vectorizer.io
  </text></g></svg>