<svg version="1.2" xmlns="http://www.w3.org/2000/svg" viewBox="0 0 516 512" width="516" height="512">
	<title>bulbResized-svg</title>
	<style>
		tspan { white-space:pre } 
		.s0 { fill: #ffffff } 
		.t1 { font-size: 20px;fill: #d3d3d3;font-weight: 400;font-family: "LiberationSans", "Liberation Sans" } 
	</style>
	<g>
		<path fill-rule="evenodd" class="s0" d="m235.4 491.4c-8.8-0.6-16.2-4.6-21.8-12-2.4-3.2-3.3-5.2-4.8-10.4-0.4-1.4-0.9-2.7-1.1-2.9-0.1-0.1-1-0.5-2-0.8-1.9-0.6-8.3-3.2-10.3-4.2-6.9-3.5-15.1-10.4-19.7-16.7-6.9-9.4-11-19.5-13-31.7-0.4-2.4-0.4-6-0.5-37.9 0-37.3 0-36.8-1.2-41.9-1.1-4.8-3.2-9.1-6.5-13.6-1.5-1.9-5.1-5.6-8.9-8.9-1.3-1.1-4.6-4.1-7.2-6.7-25.7-24.6-44.9-55.5-53.4-85.9-5.2-18.3-6.2-36-3.7-60.6 0.7-6.9 2.5-16.9 4.4-24.2 6-23.3 16.6-43.3 31.7-59.9 12.4-13.6 27-24.4 44.9-33.1 18.1-8.9 38-14.8 61.5-18.3 10.5-1.5 13.7-1.6 16.1-0.4 2.9 1.5 4.5 4.1 4.9 7.7 0.2 1.3 0.3 66.4 0.3 174.9 0 95 0.1 172.9 0.2 173 0.1 0.1 3.1 0.2 6.6 0.3 4.9 0.2 6.5 0.1 6.8-0.1 0.3-0.3 0.4-20.6 0.4-159.3 0-112.4 0.1-159.7 0.3-161.7 1.1-11.4 6.9-21.8 16-28.7 2.6-2 8.7-5 12-5.9 9.1-2.5 19.4-1.9 27.4 1.8 7.9 3.5 13.9 8.7 18.5 15.8 0.8 1.3 1.7 2.6 2 3 0.7 0.8 0.7 0.8 4.8-0.1 3.1-0.7 9.3-0.9 13.4-0.5 6.1 0.6 10.7 2 16.6 4.9 13 6.2 23 18.9 26.8 33.8 1.2 4.8 1.6 8.3 1.6 13.6 0 2.7-0.1 5.4-0.1 5.8-0.1 1-0.4 0.8 4.4 3 7.3 3.5 13 8.5 17.8 15.6 3.5 5.2 5.9 11.2 6.9 17.4 0.5 3.3 0.5 10.3 0 14-0.9 5.9-2.6 11.7-4.6 15.9-1.2 2.5-1.3 3.1-0.7 3.6 0.2 0.2 1.2 1.3 2.2 2.5 5.4 6.3 9.3 14.2 10.9 22.1 1.6 7.8 1.2 17.2-1 24.7-2.5 8.3-6.9 15.7-13.4 22.2-2.7 2.8-3.4 3.6-3.3 4 0.1 0.3 0.4 1.5 0.8 2.7 1.8 5.9 2.3 13.5 1.3 20.1-1.6 10.3-6.7 19.7-14 26.2-2.2 1.9-6.3 4.8-8.6 6-0.6 0.3-1.3 0.8-1.4 1-0.1 0.3-0.1 1.2 0.1 2.5 3.6 20.7-4.3 40.3-20.8 51.4-5.5 3.7-13 6.5-19.3 7.3-2.9 0.3-9.3 0.3-11.3 0-1.4-0.2-1.7-0.2-2.1 0.1-0.3 0.4-0.4 3.1-0.5 24-0.1 14.1-0.3 24.4-0.5 25.5-0.9 6.7-2.2 11.7-4.3 17.2-5.8 14.6-15.9 26.1-28.9 32.7-2.2 1.2-8 3.5-9.9 4.1-0.8 0.2-1.6 0.6-1.8 0.8-0.3 0.2-0.7 1.2-1 2.2-0.8 2.9-2.6 7.2-3.4 8.7-1.1 1.7-3.5 4.7-5.5 6.5-3 2.9-6.6 5.1-10.4 6.4-3.7 1.2-5.2 1.3-21.9 1.4-8.5 0.1-17 0.1-18.8 0zm34.6-12.2c3.6-0.6 6.9-2.7 9.7-5.9 1.9-2.3 3.4-5.1 3-5.6-0.3-0.3-4.4-0.4-30.3-0.4-16.5 0-30.2 0.1-30.5 0.2-0.8 0.2-0.8 0.9 0.2 2.5q2.6 4.8 7.5 7.7c3.2 2 4.8 2.1 23.6 2 11.7-0.1 15-0.2 16.8-0.5zm18.2-24.3c9.3-1 17.8-4.9 24.8-11.8 3-2.9 6.5-7.3 6.3-7.8-0.1-0.3-9.2-0.3-67.4-0.3-50 0.1-67.3 0.2-67.4 0.4-0.1 0.2 1.7 2.6 4.5 5.8 0.6 0.7 2.1 2.2 3.4 3.3 7.1 6 14.7 9.5 23.1 10.4 4.6 0.5 67.8 0.5 72.7 0zm34.7-25.7c1.5-0.6 4.8-9.7 6-16.7 0.4-2 0.4-2.7 0.2-2.9-0.5-0.4-153.8-0.5-154.2 0-0.2 0.2-0.2 0.9 0.1 2.9 0.9 5.2 2.5 10.5 4.4 14.2l1.2 2.4 2.7 0.1c4.7 0.3 139 0.2 139.6 0zm1.5-25.5l5.3-0.2v-6.7c0.1-4.8 0-6.9-0.2-7.1-0.2-0.3-12.3-0.3-77.5-0.3-65.2 0-77.3 0-77.6 0.3-0.2 0.2-0.2 2.3-0.2 7.1l0.1 6.7 1.5 0.2c2 0.2 141.9 0.2 148.6 0zm-110.9-26.8c0.5-0.5 0.6-158.8 0.1-159.2-0.2-0.2-1.5-0.5-2.9-0.8-1.4-0.2-3.6-0.7-4.8-1-18.4-4.3-37.1-17.6-45.7-32.5-6.4-11.1-7.5-24.1-3.1-34.3 3.4-8 10.6-13.5 19.8-15.1 2.8-0.5 10.9-0.5 13.4 0.1 5.9 1.3 11.1 4.3 16.3 9.5 3.2 3.2 5.4 6.2 7.4 10.3 2.4 5 3.5 8.6 4.5 14.9 0.9 5.5 1 10.1 1 27.1 0 13.1 0.1 16.3 0.4 16.5 0.3 0.3 6.5 0.8 10.2 0.8 2 0 2.4-0.1 2.6-0.4 0.2-0.7 0.1-179.4-0.1-179.8-0.3-0.4-3.5 0-13.1 1.5-21.6 3.5-43.9 11.2-60.7 20.9-14.3 8.3-25.6 17.6-35.6 29.4-6.6 7.9-12.8 17.6-17.1 26.9-2.7 6-4.2 9.6-5.8 14.5-4.3 13.2-6.8 26.4-7.9 41.4-0.5 6.7-0.4 21.2 0.1 26 2.7 24.3 12.7 49 29.4 72.6 8.9 12.5 19.2 23.9 31.9 35.3 6.1 5.4 7.8 7.2 10.3 10.6 2.5 3.2 3.6 5.1 5.3 8.6 3 6.4 4.3 11.8 4.8 19.3 0.1 3 0.2 10.3 0.1 20.7-0.2 15.6-0.2 16.1 0.3 16.4 0.7 0.4 38.5 0.2 38.9-0.2zm18.9-0.1c0.4-0.2 0.4-9.2 0.4-78.8 0-62.5-0.1-78.5-0.3-78.7-0.2-0.2-2.2-0.4-4.6-0.5-2.4-0.1-5-0.2-5.8-0.3-0.8-0.1-1.8-0.1-2.1 0l-0.5 0.2 0.2 79c0.1 43.4 0.2 79.1 0.3 79.2 0.5 0.5 11.8 0.4 12.4-0.1zm97.1 0.2c0.2-0.2 0.3-2.7 0.3-9.8v-9.5l-0.8-0.7c-0.4-0.4-0.9-0.7-1-0.7-0.4 0-5.3-3.4-7.4-5.2-3.3-2.9-8.1-8.1-8.1-8.9 0-0.2 0.9-1 2-1.7 1.2-0.7 3.2-2.2 4.7-3.2 1.4-1 2.8-1.8 3-1.8 0.3 0 1.1 0.8 1.8 1.8 5 6.3 12.8 11 20.7 12.3 6.2 1.1 14.2-0.1 19.8-2.9 5.2-2.6 10.1-7 13.6-12.1 1.5-2.1 3.5-6.4 4.5-9.5 4.5-13.8 1.3-28.3-8.5-38.6-6.2-6.5-14.6-10.4-22.6-10.4-1.2 0-2.4-0.1-2.6-0.3-0.4-0.2-0.5-0.8-0.8-4.1-0.2-2.2-0.3-4.9-0.2-5.9l0.1-1.9h1.6c2.3-0.2 6.7 0.3 10 1.1 11.8 2.6 22 9.7 28.6 19.8 1.1 1.6 2.2 3.2 2.5 3.6l0.5 0.6 1.2-0.6c3.3-1.8 7.5-5.6 9.6-8.7 3.8-5.7 5.6-10.9 6-17.4 0.3-6.7-0.4-10.6-2.9-16-2.6-5.5-5.7-9.3-10.2-12.7-1.1-0.7-2-1.4-2-1.5 0-0.2 0.8-1.6 1.7-3.1 0.4-0.8 1.5-2.7 2.5-4.2 0.9-1.6 1.8-2.8 1.9-2.8 0.9 0 5.4 3.6 8.8 7 2.1 2.2 3.8 3.7 4 3.6 0.2-0.1 0.9-0.8 1.7-1.6 5.3-6 8.8-13 10.1-20.6 0.5-2.7 0.5-9.6 0.1-12.5-1.2-6.9-4.3-13.6-9-19.1-2.9-3.4-9.2-7.7-13.5-9.3-12.2-4.6-25.7-1.6-35.2 8-3.8 3.8-6.5 8.1-8.5 13.4-1 2.7-1 2.6-3.1 2-0.9-0.2-2.9-0.8-4.3-1.1-1.5-0.4-3.2-0.9-3.9-1.1l-1.2-0.4 0.2-0.9c0.2-1.4 1.6-5 3.1-7.9 5.3-10.6 14.4-19 24.9-23 5.7-2.2 10.2-3 16.7-3 7 0 12.6 1.2 19 4.2 2.8 1.3 2.8 1.3 3.8-1.1 2.6-6.4 3.7-16.9 2.3-23-0.7-3.1-1.1-4.4-2.9-7.8-1.5-3-3.6-6-5.7-8-3.2-3-9.4-7-10.6-6.8-0.3 0.1-1.1 1.3-2.5 4-3.6 7-6.2 10.6-11 15.2-4.2 4.1-8 6.7-13.2 9.2-4.8 2.3-11.4 4.1-15.2 4.2l-1.7 0.1-0.3-4.4c-0.1-2.4-0.3-5.1-0.3-5.9v-1.5l3-0.6c6.9-1.3 12.2-3.7 17.4-8.1 8.4-7 13.6-17.6 14.3-29 0.5-7.8-1.2-15.5-4.8-22.3-1.8-3.4-3-5.2-5.4-7.9-10.1-11.2-23.8-15.1-38.3-10.9-3.4 1-5.9 2.3-9.2 4.6-4.9 3.6-9.7 8.9-12.4 13.9-0.2 0.4-0.6 0.8-0.9 0.8-0.2 0-2.7-1.2-5.5-2.5l-5.1-2.6 1.2-2.1c3.7-6.9 10.2-14 16.8-18.2 1.8-1.2 1.8-1.4 0.3-3.6-2.7-4.1-8.4-9-12.5-10.8-7.6-3.4-16.3-3.3-23.7 0.2-7.8 3.7-13.2 11.1-15.1 20.6-0.4 2.2-0.4 10.1-0.4 161.9v159.7l1.4 0.1c0.7 0.1 13.7 0.2 28.9 0.2 21.2 0 27.7 0 27.9-0.3zm-115.9-165.4c0.4-0.3 0.4-1.3 0.3-18-0.1-20.1-0.3-22.4-2.1-29.8-1.7-6.7-4.5-11.6-8.9-16.1-6.4-6.5-13.4-9.4-21.3-8.8-9 0.5-15.7 4.6-19.2 11.8-2.9 5.9-3.2 14.6-0.7 22.4 0.9 2.9 3.5 8.3 5 10.4 9.5 13.5 26 24.2 42.7 27.7 1.9 0.4 3.6 0.7 3.6 0.7 0.1 0 0.4-0.1 0.6-0.3z"/>
		<path class="s0" d="m320.4 303.4c-3.9-0.8-6.4-2-10.1-4.8-1.4-1.1-3.5-3.3-4.5-4.7-0.7-1-1.1-0.8-2.1 1.1-1 2-3.6 6.2-4.5 7.2-0.4 0.3-0.8 0.6-1 0.6-0.2 0-0.9-0.7-1.6-1.5l-1.4-1.5 1.4-1.7c1.6-1.9 3.5-5.5 4.3-7.9 1.1-3.4 1.1-8.6 0-12.1-2-6.4-7.3-11.7-13.6-13.6-2.1-0.6-2.1-0.6-1.8-2.6 0.2-1 0.4-1.8 0.6-2 0.7-0.6 6.8 2 10 4.3 3.7 2.7 6.5 6.3 8.3 10.7 1 2.4 1.5 5 1.8 8.2 0.2 2.7 0.2 3.1 0.9 4.4 0.9 2.1 2.3 4.1 3.8 5.7 1.3 1.3 3.7 3.2 5 4 1.3 0.7 3.8 1.6 5.7 1.9 1.1 0.2 2.1 0.4 2.4 0.4 0.4 0.1 0.4 0.2 0.4 2.2l-0.1 2h-1.1c-0.6 0.1-1.8-0.1-2.8-0.3z"/>
		<path class="s0" d="m312.3 251.9c-2.7-2.5-3.9-5.9-3.3-9.8 0.2-2.1 0.2-2.1-1.8-2.8-6.4-1.8-12.2-6.2-16.3-12.3-2.4-3.5-5.5-10.7-5.3-12.2q0.1-0.9 2.8-1.2l1.3-0.1 0.6 2c2.6 8.5 7.6 14.7 14.6 18.3 3.6 1.8 6.9 2.5 11.5 2.3 6.5-0.2 11.8-2.3 16.8-6.7 0.7-0.6 1.4-1.2 1.5-1.2 0.3 0 3 2.6 3 2.9 0 0.5-2.8 2.8-5.7 4.6-5 3.1-10.5 4.8-15.6 4.8q-2 0-2.4 0.3c-0.7 0.5-0.9 3.4-0.4 5.2 0.2 0.7 0.7 1.5 1.3 2.2 0.5 0.7 1 1.4 1 1.5 0 0.5-1.8 3.3-2.1 3.3-0.1 0-0.8-0.5-1.5-1.1z"/>
		<path class="s0" d="m349.9 219.4c-1.4-0.2-2.7-0.5-2.9-0.8-0.1-0.1 0-0.7 0.4-1.9 0.3-1 0.6-1.8 0.7-1.9 0 0 0.7 0 1.5 0.1 3.1 0.5 5.6 0.1 8.5-1.3 2.9-1.4 5.2-3.7 6.6-6.9 0.3-0.7 0.6-1.3 0.7-1.3 0.3-0.2 3.5 0.6 3.9 0.9 0.3 0.2 0.2 0.4-0.2 1.5-2.1 5.1-6.3 9.1-11.3 10.7-2.6 0.8-5.6 1.2-7.9 0.9z"/>
		<path class="s0" d="m299.2 188.2c-5.5-1.8-9.8-6.8-12.7-14.9-0.6-1.8-1.6-5.6-1.5-6.1 0.1-0.5 0.2-0.6 1.5-0.8 0.9-0.1 1.8-0.2 2.1-0.2 0.6 0.1 0.6 0.1 1.2 2.5 2 7.6 5.1 12.6 9.2 14.7 1.4 0.7 1.5 0.7 3.6 0.7h2.1l1.9-0.9c1.1-0.6 2-1 2.1-0.9 0.3 0.1 2.6 2.7 2.6 2.9 0 0.2-1.6 1.4-2.7 2-0.4 0.2-1.5 0.6-2.4 0.9-2.1 0.6-5.2 0.7-7 0.1z"/>
		<path class="s0" d="m309.8 153.6c-0.1-0.6 0.1-6.6 0.3-8.3l0.1-1-1.7 0.2c-3.3 0.3-5.7 0-8-1.1-1.5-0.7-2.9-1.8-2.9-2.2 0.1-0.3 2.5-3 2.8-3 0.1 0 0.6 0.3 1.1 0.6 2.9 2 6.9 1.8 9.7-0.3 0.8-0.6 1.2-1.2 2.1-2.9 1.8-3.3 3-5 5.4-7.3 2.3-2.4 5.3-4.5 8.1-5.8 1.6-0.8 3.6-1.5 4.1-1.5 0.2 0 0.9 1.9 1.2 3.3 0.1 0.6 0 0.6-0.7 0.9-4.3 1.8-7.2 3.7-9.8 6.5-2.9 2.9-4.8 6.2-6.1 10.1-0.8 2.6-1 4.1-1.2 8.2l-0.1 3.6-0.6 0.1c-0.3 0.1-1.2 0.2-2.1 0.3l-1.5 0.1z"/>
	</g>
</svg>