<?xml version="1.0" encoding="utf-8"?>
<!DOCTYPE svg PUBLIC "-//W3C//DTD SVG 1.0//EN" "http://www.w3.org/TR/2001/REC-SVG-20010904/DTD/svg10.dtd">
<svg version="1.0" xmlns="http://www.w3.org/2000/svg" width="512px" height="512px" viewBox="0 0 512 512" preserveAspectRatio="xMidYMid meet">
 <g fill="#ffffff">
  <path d="M40.3 505.1 c-7.5 -1.9 -10.8 -6.2 -11.9 -15.4 l-0.6 -5.5 -5.7 -0.6 c-11.3 -1.3 -15.5 -6.3 -15.5 -18.6 -0.1 -12.1 4.5 -17.5 15.7 -18.7 l5.5 -0.6 0.6 -5.6 c1.3 -11.3 6.4 -15.6 18.6 -15.6 12.2 0 17.3 4.3 18.6 15.6 l0.6 5.6 5.5 0.6 c11.2 1.2 15.8 6.6 15.7 18.7 0 12.3 -4.2 17.3 -15.5 18.6 l-5.7 0.6 -0.6 5.7 c-0.8 6.7 -3.4 11.4 -7.5 13.6 -3.7 1.8 -13.4 2.7 -17.8 1.6z m13.9 -20.1 c0.4 -11.8 1 -12.4 12.8 -12.8 l9 -0.4 0 -6.8 0 -6.8 -9 -0.4 c-11.8 -0.4 -12.4 -1 -12.8 -12.8 l-0.4 -9 -6.8 0 -6.8 0 -0.4 9 c-0.4 11.8 -1 12.4 -12.8 12.8 l-9 0.4 0 6.8 0 6.8 9 0.4 c11.8 0.4 12.4 1 12.8 12.8 l0.4 9 6.8 0 6.8 0 0.4 -9z"/>
  <path d="M448.4 503.9 c-4.5 -1.3 -12.3 -6.8 -15.5 -10.9 -1.5 -1.9 -8.7 -15.2 -16 -29.4 -12.7 -24.8 -13.2 -26.2 -13.7 -33 -0.7 -12.8 5.8 -24 17.4 -29.9 19.4 -9.8 40.8 -9.4 57 1.1 15.5 10 27.4 31.8 27.4 50.2 0 20.4 -15.5 42.2 -36 50.7 -5.8 2.4 -14.7 2.9 -20.6 1.2z m19.4 -12.6 c3 -1.6 8.2 -5.4 11.6 -8.5 13.8 -12.6 17.8 -29.6 11.1 -47.3 -10.3 -27.5 -35.4 -37.9 -62.7 -26.1 -9.2 3.9 -14.5 12.3 -13.6 21.3 0.4 3.7 3.7 10.9 13.7 30.3 7.3 14 13.9 26.2 14.8 27.2 2.8 3.1 9.6 5.8 14.7 5.8 3.4 0 6.6 -0.9 10.4 -2.7z"/>
  <path d="M455.5 476.1 c-3.6 -1.6 -6.1 -5.3 -15.4 -23.3 -9.6 -18.5 -10.5 -21.7 -7.5 -26.8 3 -4.9 6.9 -6.5 16.4 -6.5 7.5 0 9.1 0.3 13.3 2.8 9.5 5.6 16.7 18.3 16.7 29.5 0 7.3 -3.2 14.2 -9.2 20 -4.8 4.6 -10.1 6.2 -14.3 4.3z m8.4 -13.6 c3.6 -4.2 4.5 -7.1 3.9 -12.8 -1 -8.9 -7.9 -18.1 -14.5 -19.3 -3.2 -0.6 -10 0 -11 1 -0.7 0.6 16.7 34.6 17.7 34.6 0.4 0 2.2 -1.6 3.9 -3.5z"/>
  <path d="M221.3 486.1 c-3.5 -2.2 -7.4 -6.9 -17.8 -21.4 -3.8 -5.3 -7.2 -9.7 -7.6 -9.7 -0.4 0 -1.2 1.5 -1.8 3.3 -2.1 6.4 -10 11.7 -17.3 11.7 -6.3 -0.1 -12.2 -3.1 -15.5 -8.1 -5.1 -7.8 -4.5 -11.4 9.1 -50.4 6.5 -18.7 12.9 -35.9 14.2 -38.1 6.1 -10.7 20.6 -17.7 32.1 -15.4 7.3 1.4 27.6 8.5 33.4 11.6 6.9 3.8 14.2 12.1 17 19.2 8.9 23.2 -3.9 49.7 -26.9 55.6 l-4.2 1.1 5.1 7 c2.8 3.9 5.8 8.4 6.5 10.2 3.2 7.5 0.6 16.8 -6.2 22 -5 3.7 -15.2 4.5 -20.1 1.4z m14.7 -11.1 c3.9 -3.9 2.7 -7.3 -7.1 -20.7 -4.9 -6.8 -9.3 -13.1 -9.6 -13.9 -0.3 -0.8 0.2 -2.5 1.1 -3.9 1.5 -2.3 2.2 -2.5 9.7 -2.5 9.4 0 13.8 -1.6 19.2 -6.8 13.7 -13.2 12.6 -36.9 -2.1 -46.7 -5.7 -3.7 -29.7 -11.6 -35.5 -11.6 -6 0 -12.9 3.2 -16.2 7.5 -2.6 3.4 -26.5 71.5 -26.5 75.5 0 6 8.6 9.5 12.9 5.2 1 -1 2.9 -4.9 4.1 -8.7 3 -9.4 4.4 -11.4 7.9 -11.4 2.6 0 3.9 1.4 10.7 10.8 22.5 31 21 29.2 25.4 29.2 2.7 0 4.7 -0.7 6 -2z"/>
  <path d="M228.5 421.2 c-3.3 -0.6 -20.8 -6.4 -23.6 -7.8 -1.4 -0.7 -3.2 -2.7 -3.9 -4.3 -1 -2.6 -0.8 -4 1.5 -11.2 3 -8.9 6 -12.9 9.7 -12.9 3.1 0 22.5 6.5 26.4 8.9 5.9 3.6 8 12.4 4.6 19 -2.7 5.5 -9.5 9.3 -14.7 8.3z m5.1 -13.8 c0.4 -1.6 0.2 -3 -0.7 -3.9 -1.4 -1.3 -17.8 -7 -18.3 -6.4 -0.5 0.7 -2.6 7.2 -2.4 7.4 1.2 1 15.9 5.4 18 5.4 2.2 0.1 2.9 -0.5 3.4 -2.5z"/>
  <path d="M359 391.9 c-24.6 -1.5 -49.3 -10.5 -70.1 -25.6 -10.5 -7.5 -26.1 -23.7 -33.2 -34.4 -5.7 -8.6 -14 -25 -15.2 -30.1 l-0.7 -2.8 -14.8 0 -14.7 0 -0.7 8.2 c-1.3 15.8 -9.1 23.9 -24.1 25.3 -24.5 2.3 -36.5 -5.6 -38.1 -25.3 l-0.7 -8.2 -14.2 0 -14.3 0 -0.4 19.3 -0.4 19.3 -3 5.4 c-4.3 7.6 -10.9 11.6 -20.9 12.5 -18.2 1.7 -29.1 -2.2 -34.9 -12.5 l-3 -5.4 -0.4 -19.2 -0.4 -19.1 -15.3 -0.5 c-14.7 -0.4 -15.4 -0.6 -20.6 -3.5 -4 -2.2 -6.3 -4.4 -8.6 -8.2 -4 -6.6 -4.7 -13.4 -4.1 -38 0.4 -17.5 0.4 -17.8 3.4 -23.2 3.8 -6.7 10.8 -11.3 18.6 -12.2 2.9 -0.4 51.7 -0.7 108.4 -0.7 l103.2 0 0.7 -2.7 c1.2 -5.2 9.5 -21.6 15.2 -30.2 7.1 -10.7 22.7 -26.9 33.2 -34.4 16.5 -12 37.5 -20.8 57.1 -24.2 12.3 -2.1 32.9 -2.1 45.6 0 27.1 4.6 51.1 16.7 71.2 35.9 27.7 26.5 42.3 60.4 42.3 98.6 0 37.4 -13.2 69.2 -40.1 96 -29 29.1 -64.6 42.5 -106 39.9z m31.3 -12.4 c25.8 -4.5 48.7 -16.4 67.3 -34.9 24 -24.1 36.4 -54.2 36.4 -88.6 0 -26.3 -6.5 -47.9 -20.8 -69.5 -15.3 -23.2 -38.7 -40.9 -65.7 -49.8 -30.8 -10.1 -69.3 -6.8 -97.5 8.5 -26.9 14.6 -45.7 35.7 -57.6 64.7 -4.7 11.2 -5.7 12.5 -11.4 14.1 -2.2 0.6 -43.1 1 -109.8 1 l-106.4 0 -3.4 3.4 -3.4 3.4 0 24.1 0 24.1 2.9 3.2 2.9 3.3 17.4 0.5 c25.6 0.8 25.1 0.2 25.8 29.8 l0.5 21.4 3.3 2.9 c3.2 2.9 3.3 2.9 15.7 2.9 12.4 0 12.5 0 15.7 -2.9 l3.3 -2.9 0.5 -21.4 c0.7 -29.9 0.2 -29.3 26.5 -29.3 23.9 0 25.2 0.9 26.4 17.7 0.6 9.7 0.8 10.1 3.9 12.9 3.2 2.9 3.4 2.9 15.7 2.9 12.3 0 12.5 0 15.7 -2.9 3.1 -2.8 3.3 -3.2 3.9 -12.9 1.1 -16.3 2.7 -17.6 23.4 -18 14.8 -0.4 21.2 0.4 24.8 3 0.9 0.7 3.7 6.1 6.1 12.1 16.8 40.7 49.2 67.6 92.4 76.7 11.1 2.4 33.5 2.6 45.5 0.5z"/>
  <path d="M361.8 319.9 c-29.1 -3 -53.5 -27.4 -56.6 -56.5 -2.1 -19.7 4.2 -38.1 17.8 -52 13.1 -13.4 27.5 -19.5 46 -19.5 11.1 0 18.7 1.8 28.5 6.6 16.4 8 29.4 24 34 42 2 7.7 2 23.3 0 31 -8.1 31.3 -37.5 51.7 -69.7 48.4z m21.1 -12.4 c9.1 -2.4 16.2 -6.6 23.6 -14 10.9 -10.9 15.5 -21.9 15.5 -37.5 0 -15.6 -4.6 -26.6 -15.5 -37.5 -10.9 -10.9 -21.9 -15.5 -37.5 -15.5 -15.6 0 -26.6 4.6 -37.5 15.5 -10.9 10.9 -15.5 21.9 -15.5 37.5 0 15.6 4.6 26.6 15.5 37.5 7.2 7.2 14.5 11.6 23.2 14 6.5 1.8 21.6 1.8 28.2 0z"/>
  <path d="M178 179.7 c-15.7 -5.4 -27.8 -17.9 -32.4 -33.6 -2.3 -7.7 -2.1 -21.3 0.4 -29.2 2.4 -7.8 8.7 -17.6 14.3 -22.4 10.1 -8.7 20.5 -12.5 33.7 -12.5 13.2 0 23.6 3.8 33.7 12.5 5.6 4.8 11.9 14.6 14.3 22.4 2.5 7.9 2.7 21.5 0.4 29.2 -4.7 15.9 -18.4 29.6 -34.3 34.3 -8.2 2.4 -22 2.1 -30.1 -0.7z m32.3 -11.9 c8 -3.8 15.8 -11.4 19.3 -19.1 2.6 -5.6 2.9 -7.2 2.9 -16.7 0 -9.5 -0.3 -11.1 -2.9 -16.7 -3.5 -7.6 -11.3 -15.3 -19.3 -19.1 -5.2 -2.4 -7 -2.7 -16.3 -2.7 -9.3 0 -11.2 0.3 -16.2 2.7 -8 3.7 -15.2 10.7 -19.1 18.7 -3 6.1 -3.2 7.2 -3.2 17.1 0 9.3 0.3 11.2 2.6 16.1 4.5 9.6 11.6 16.3 21.8 20.6 4.8 2 7 2.3 15.1 2.1 7.8 -0.3 10.5 -0.8 15.3 -3z"/>
  <path d="M183.2 153.9 c-5 -2.5 -10.7 -8.8 -12.3 -13.6 -0.6 -1.9 -0.9 -6.6 -0.7 -10.3 0.3 -5.7 0.9 -7.7 3.4 -11.2 10.4 -14.9 30.4 -14.8 40.9 0.1 2.8 4 3 4.9 3 13.1 0 8.2 -0.2 9.1 -3 13.1 -1.7 2.4 -5 5.7 -7.4 7.4 -3.7 2.6 -5.3 3 -11.9 3.3 -6.3 0.2 -8.5 -0.1 -12 -1.9z m17.8 -10.5 c5.7 -3.4 7.9 -12.4 4.4 -18.4 -4.8 -8.1 -18 -8.1 -22.8 0 -3.4 5.9 -1.4 14.8 4.3 18.3 3.4 2.1 10.5 2.1 14.1 0.1z"/>
  <path d="M41.5 98.6 c-2.2 -0.8 -5.3 -3 -6.8 -4.8 -3.3 -3.8 -27.7 -60.4 -28.4 -65.8 -1.7 -12.2 9.9 -23.4 22.2 -21.6 7.6 1.2 12.3 5.7 17.2 16.5 l4.2 9.3 3.4 -6.8 c5.7 -11.2 11.1 -15.4 20.2 -15.4 5 0 10.8 2.5 14.1 6.2 1.2 1.2 3.8 5.5 5.7 9.3 l3.5 7 1.2 -3 c0.6 -1.6 2.7 -6.2 4.6 -10.2 2.9 -6 4.2 -7.7 8 -9.9 9.2 -5.4 19.1 -3.6 25.8 4.9 2.5 3.1 3.1 4.9 3.4 10 0.4 6.1 0.1 6.9 -12.3 36.2 -7.5 17.6 -13.8 31.2 -15.3 32.9 -5.8 6.2 -15.1 8.2 -22.7 4.7 -5.3 -2.4 -7.5 -5.1 -12.2 -14.5 l-4 -8 -4.8 9.3 c-3.6 6.9 -5.8 9.9 -8.5 11.7 -4.8 3.2 -12.9 4 -18.5 2z m12.2 -11.1 c1.1 -0.8 5.1 -7.8 8.9 -15.5 6.9 -14.3 8.6 -16.3 13 -14.6 0.8 0.3 4.7 7.1 8.5 15.1 3.9 8 7.9 15 8.9 15.5 2.9 1.5 7.6 1.2 9.9 -0.7 2.6 -2.2 26.1 -57.4 26.1 -61.3 0 -4.2 -0.9 -5.9 -4.2 -7.6 -3.4 -1.8 -7.8 -1.1 -10.1 1.4 -0.8 0.9 -4.1 7.8 -7.2 15.2 -3.2 7.4 -6.2 14.1 -6.8 14.8 -0.6 0.7 -2.4 1.2 -4.1 1 -2.9 -0.3 -3.6 -1.2 -10.1 -14.1 -3.8 -7.6 -7.7 -14.2 -8.5 -14.7 -2.4 -1.5 -7.6 -1.1 -9.9 0.7 -1.1 1 -5 7.8 -8.6 15.1 -5.6 11.6 -6.8 13.2 -8.9 13.2 -1.3 0 -3.1 -0.3 -3.9 -0.6 -0.8 -0.3 -4.3 -7.3 -7.8 -15.5 -6.5 -15.6 -8.3 -17.9 -13.9 -17.9 -2.9 0 -8 5.3 -8 8.3 0 1.4 5.6 15.7 12.5 31.9 9.5 22.2 13.1 29.8 14.8 30.6 3.2 1.5 6.9 1.4 9.4 -0.3z"/>
  <path d="M452.9 85.6 c-11.6 -4.4 -19.5 -11.5 -24.3 -21.6 -2.9 -6 -3.1 -7.3 -3.1 -17 0 -9.7 0.2 -11 3.1 -17 3.9 -8.3 11.1 -15.5 19.4 -19.4 6 -2.9 7.3 -3.1 17 -3.1 9.7 0 11 0.2 17 3.1 8.3 3.9 15.5 11.1 19.4 19.4 2.9 6 3.1 7.3 3.1 17 0 9.7 -0.2 11 -3.1 17 -3.9 8.3 -11.1 15.5 -19.4 19.4 -5.7 2.7 -7.7 3.1 -16 3.3 -6.1 0.2 -10.8 -0.2 -13.1 -1.1z m26.3 -12.9 c4.9 -2.9 9.7 -7.9 12.5 -13 1.4 -2.4 1.8 -5.5 1.8 -12.7 0 -8.5 -0.3 -10 -2.7 -14.1 -5.9 -10 -14.3 -14.8 -25.8 -14.9 -9 0 -15.5 2.7 -21.2 8.6 -5.6 5.9 -7.8 11.6 -7.8 20.4 0 10.9 3.6 17.6 13.2 24.9 3.9 2.9 9.4 4.1 17.4 3.8 6.6 -0.3 8.9 -0.8 12.6 -3z"/>
 </g>
</svg>