<?xml version="1.0" encoding="utf-8"?>
<!DOCTYPE svg PUBLIC "-//W3C//DTD SVG 1.0//EN" "http://www.w3.org/TR/2001/REC-SVG-20010904/DTD/svg10.dtd">
<svg version="1.0" xmlns="http://www.w3.org/2000/svg" width="512px" height="512px" viewBox="0 0 512 512" preserveAspectRatio="xMidYMid meet">
 <g fill="#ffffff">
  <path d="M227.5 511.1 c-10.7 -1.7 -20.7 -9.6 -24.3 -19.2 -1.2 -3.3 -3.1 -13.9 -4.7 -26.9 -1.5 -11.8 -2.8 -21.5 -2.8 -21.6 -0.1 0 -3.1 -1.1 -6.7 -2.4 -3.6 -1.2 -10.3 -4 -14.8 -6.1 l-8.4 -3.8 -17.3 13.4 c-20.3 15.8 -24.2 17.9 -34 17.9 -12.1 0 -15.6 -2.3 -38.7 -25.2 -23.5 -23.2 -26.3 -27.5 -26.2 -39.6 0 -9.9 1.9 -13.5 17.8 -33.9 l13.5 -17.4 -4.8 -10.9 c-2.7 -6 -5.4 -12.7 -6.1 -15 l-1.2 -4.1 -17.7 -2.2 c-25 -3.1 -29 -3.9 -34.4 -6.9 -6 -3.2 -10.2 -7.9 -13.6 -15.2 l-2.6 -5.5 0 -30.5 0 -30.5 2.7 -5.7 c3.5 -7.6 10.1 -14 16.9 -16.6 3.3 -1.2 13.9 -3.1 26.9 -4.7 11.8 -1.5 21.5 -2.8 21.6 -2.8 0 -0.1 1.1 -3.1 2.4 -6.7 1.2 -3.6 4 -10.3 6.1 -14.8 l3.8 -8.4 -13.4 -17.3 c-15.8 -20.3 -17.9 -24.2 -17.9 -34 0 -12.3 2.3 -15.8 25.7 -39.2 23.5 -23.5 27.1 -25.8 39.2 -25.7 9.8 0 13.8 2.1 34 17.8 l17.3 13.5 10.8 -4.9 c6 -2.6 12.8 -5.4 15.2 -6.1 2.3 -0.6 4.2 -1.7 4.2 -2.2 0 -2.9 5.2 -41.7 6 -44.7 2.3 -8.5 9 -15.8 18.6 -20.2 4.8 -2.2 5.8 -2.3 35.4 -2.3 l30.5 0 6.7 3.3 c7.8 3.8 12.9 9.3 15.7 16.6 1.1 2.9 3.1 14.4 4.6 26.6 1.5 11.8 2.8 21.5 2.8 21.6 0.1 0 3.1 1.1 6.7 2.4 3.6 1.2 10.3 4 14.8 6.1 l8.4 3.8 17.3 -13.4 c20.2 -15.8 24.1 -17.8 34 -17.9 12.1 -0.1 16.4 2.7 39.7 26.1 22.9 23.1 25.3 26.7 25.2 38.8 0 9.8 -2.1 13.8 -17.9 34 l-13.4 17.3 3.8 8.4 c2.2 4.5 4.9 11.3 6.2 14.9 l2.3 6.6 17.5 2.2 c25 3.1 29 3.9 34.4 6.9 6 3.2 10.2 7.9 13.6 15.2 l2.6 5.5 0 30.5 0 30.5 -3.3 6.8 c-3.9 7.8 -10.3 13.6 -17.9 16.1 -3.7 1.2 -41.3 6.6 -46 6.6 -0.5 0 -1.6 1.9 -2.2 4.3 -0.7 2.3 -3.5 9.1 -6.1 15.1 l-4.9 10.8 13.5 17.3 c15.7 20.3 17.8 24.2 17.8 34 0 12.3 -2.3 15.8 -25.7 39.2 -23.4 23.4 -26.9 25.7 -39.2 25.7 -9.8 0 -13.5 -2 -33.9 -17.8 l-17.4 -13.5 -10.8 4.9 c-6 2.6 -12.8 5.4 -15.1 6.1 -2.4 0.6 -4.3 1.7 -4.3 2.3 0.1 5.4 -5.7 43.2 -7.1 47.2 -2.8 7.3 -7.9 12.8 -15.7 16.6 l-6.7 3.3 -27 0.2 c-14.8 0.1 -29.3 -0.2 -32 -0.6z m59.3 -22.6 c1.6 -1.4 3.2 -3.5 3.5 -4.7 0.4 -1.3 2 -13.3 3.7 -26.8 1.9 -14.9 3.7 -25.4 4.5 -26.7 1.9 -2.8 3 -3.4 14.5 -7.3 5.2 -1.8 14.6 -5.7 20.8 -8.6 6.2 -3 12.5 -5.4 14 -5.4 2.1 0 8.2 4.2 24.1 16.5 20.5 15.9 21.4 16.5 25.9 16.5 l4.6 0 19.8 -19.8 19.8 -19.8 0 -4.5 c0 -4.5 -0.7 -5.5 -16.5 -25.9 -12.4 -16 -16.5 -22 -16.5 -24.1 0 -1.6 2.4 -7.9 5.4 -14.1 3 -6.2 6.8 -15.5 8.5 -20.6 3.7 -11.3 4.5 -12.8 7.4 -14.6 1.3 -0.9 12.2 -2.7 26.7 -4.6 29 -3.7 28.2 -3.5 31.2 -6.7 2.3 -2.4 2.3 -2.6 2.6 -30.8 l0.3 -28.2 -2.6 -3.1 c-1.4 -1.6 -3.5 -3.2 -4.7 -3.5 -1.3 -0.4 -13.3 -2 -26.8 -3.7 -14.9 -1.9 -25.4 -3.7 -26.7 -4.5 -2.8 -1.9 -3.4 -3 -7.3 -14.5 -1.8 -5.2 -5.7 -14.6 -8.6 -20.8 -3 -6.2 -5.4 -12.5 -5.4 -14 0 -2.1 4.2 -8.2 16.5 -24.1 15.9 -20.5 16.5 -21.4 16.5 -25.9 l0 -4.6 -19.8 -19.8 -19.8 -19.8 -4.6 0 c-4.4 0 -5.4 0.6 -25.8 16.5 -16.7 13 -21.9 16.5 -24.3 16.5 -1.6 0 -8 -2.4 -14.1 -5.4 -6.1 -3 -15.4 -6.8 -20.6 -8.6 -10.3 -3.4 -13.4 -5 -14.9 -7.8 -0.5 -1 -2.4 -12.8 -4.1 -26.2 -1.7 -13.5 -3.4 -25.5 -3.7 -26.8 -0.3 -1.2 -1.9 -3.3 -3.5 -4.7 l-3 -2.5 -27.8 0 -27.8 0 -3 2.5 c-1.6 1.4 -3.2 3.5 -3.5 4.7 -0.4 1.3 -2 13.3 -3.7 26.7 -1.7 13.4 -3.5 25.2 -4.1 26.2 -1.5 2.9 -4.5 4.5 -14.9 8 -5.2 1.7 -14.6 5.5 -20.8 8.5 -6.2 3 -12.5 5.4 -14.1 5.4 -2.2 0 -7.9 -3.9 -24.1 -16.5 -20.4 -15.9 -21.4 -16.5 -25.8 -16.5 l-4.6 0 -19.8 19.8 -19.8 19.8 0 4.6 c0 4.4 0.6 5.4 16.5 25.8 12.6 16.2 16.5 21.9 16.5 24.1 0 1.6 -2.4 7.9 -5.4 14.1 -3 6.2 -6.8 15.6 -8.6 20.8 -3.9 11.5 -4.5 12.6 -7.3 14.5 -1.3 0.8 -11.8 2.6 -26.7 4.5 -13.5 1.7 -25.5 3.3 -26.8 3.7 -1.2 0.3 -3.3 1.9 -4.7 3.5 l-2.5 3 0 27.8 0 27.8 2.5 3 c1.4 1.6 3.5 3.2 4.7 3.5 1.3 0.4 13.3 2 26.7 3.7 13.4 1.7 25.2 3.5 26.2 4.1 2.8 1.5 4.4 4.4 7.9 14.9 1.8 5.2 5.7 14.6 8.6 20.9 3 6.3 5.4 12.6 5.4 14.1 0 1.9 -4.5 8.5 -16.5 24 -15.8 20.4 -16.5 21.4 -16.5 25.9 l0 4.5 19.8 19.8 19.8 19.8 4.6 0 c4.4 0 5.4 -0.6 25.8 -16.5 16.6 -12.9 21.9 -16.5 24.2 -16.5 1.6 0 8 2.4 14.1 5.4 6.2 3 15.5 6.8 20.7 8.5 10.4 3.5 13.4 5.1 14.9 8 0.6 1 2.4 12.8 4.1 26.2 1.7 13.4 3.3 25.4 3.7 26.7 0.3 1.2 1.9 3.3 3.5 4.7 l3 2.5 27.8 0 27.8 0 3 -2.5z"/>
  <path d="M236.9 360.4 c-20.2 -3.6 -38.9 -13.4 -54.6 -28.7 -37.2 -36.1 -43 -92.1 -14 -135.2 5.6 -8.4 18.7 -21.6 27.1 -27.4 37.3 -25.6 83.9 -25.6 121.2 0 8.4 5.8 21.5 19 27.1 27.4 29 43.1 23.2 99.1 -14 135.2 -12.3 11.9 -23.5 18.9 -39.5 24.7 -15.2 5.4 -36.7 7.1 -53.3 4z m40.2 -21.3 c31.4 -8 56 -33.6 63 -65.6 2.1 -9.4 1.6 -29.4 -1 -38.9 -8 -30 -31.6 -53.6 -61.7 -61.7 -6.2 -1.7 -10.7 -2.2 -21.4 -2.2 -15.8 0 -24.5 1.9 -37.6 8.3 -22 10.6 -39 31.4 -45.5 55.6 -3.1 11.2 -3.1 31.6 0 42.8 9 33.4 36.6 58.2 70.6 63.6 8.5 1.3 24.7 0.4 33.6 -1.9z"/>
 </g>
</svg>