<?xml version="1.0" encoding="utf-8"?>
<!DOCTYPE svg PUBLIC "-//W3C//DTD SVG 1.0//EN" "http://www.w3.org/TR/2001/REC-SVG-20010904/DTD/svg10.dtd">
<svg version="1.0" xmlns="http://www.w3.org/2000/svg" width="512px" height="512px" viewBox="0 0 512 512" preserveAspectRatio="xMidYMid meet">
 <g fill="#ffffff">
  <path d="M176.7 438.5 c-8.3 -3.1 -16.7 -11.6 -21.5 -21.7 -1.2 -2.4 -28.4 -67.3 -60.6 -144.3 l-58.5 -140 -9.8 -0.5 c-8 -0.4 -10.6 -1 -14.3 -3 -9.1 -5.1 -12.7 -14.8 -11.7 -31.3 0.9 -13.9 6.1 -21.9 16.1 -24.6 2.9 -0.9 21.8 -1.1 66.1 -0.9 54.9 0.3 62.3 0.5 64.9 1.9 2.7 1.5 3.2 1.5 7.2 -0.3 4.1 -1.8 7 -1.9 53.1 -1.6 42.5 0.3 49.2 0.5 51.7 1.9 2.6 1.5 3.1 1.5 6 0 2.7 -1.4 9.1 -1.6 51.6 -1.6 42.6 0 48.9 0.2 51.4 1.6 2.6 1.5 3.1 1.5 6 0 2.7 -1.4 10.2 -1.6 60.1 -1.9 61.4 -0.3 62.6 -0.2 68.8 4.9 5.3 4.4 7.7 10.3 8.4 20.6 1.1 17.2 -2.7 26.5 -12.6 31.6 -5 2.4 -6.5 2.7 -16.2 2.7 l-10.8 0 -2.5 3.3 c-1.3 1.7 -26.8 64.2 -56.6 138.7 -29.8 74.5 -55.6 138.1 -57.2 141.2 -8.3 15.6 -19.7 24.2 -32.2 24.2 -9.1 0 -17.9 -4.5 -24.3 -12.2 -5.7 -7 -10.3 -16.7 -27.8 -58.3 -7.5 -17.8 -14 -32.7 -14.3 -33.1 -0.4 -0.4 -5.4 9.7 -11.1 22.5 -19.5 43.5 -29.2 62.5 -35.5 69.4 -7.2 7.9 -14.2 11.4 -23.4 11.9 -4.3 0.3 -8.1 -0.1 -10.5 -1.1z m16.9 -21.1 c6.1 -4.5 11.1 -14.4 40.8 -80.4 8.1 -17.9 15.5 -33.3 16.4 -34.3 1 -1 3.4 -2 5.4 -2.3 6.8 -1.2 7.8 0.6 28.2 49.3 19.4 46.2 26.2 61.4 29.3 64.8 7.4 8.4 15 7.1 22.2 -3.5 2.5 -3.8 21.1 -49.3 58 -141.5 29.9 -74.8 55.4 -137.9 56.7 -140.2 3.5 -6.1 7.3 -10.3 12.3 -13.5 4.2 -2.6 5.2 -2.8 15.2 -2.8 5.9 0 11.4 -0.3 12.3 -0.6 2.4 -0.9 2.4 -19.9 0 -20.8 -2 -0.8 -105.8 -0.8 -107.8 0 -2.4 0.9 -2.4 19.9 0 20.8 0.9 0.3 8.8 0.6 17.6 0.6 l16 0 3 3 c2.6 2.6 3 3.6 2.5 6.8 -0.3 2 -11.1 31.4 -24 65.2 -12.9 33.8 -30.8 80.8 -39.8 104.4 -14.8 38.7 -16.7 43.1 -19.4 44.8 -4 2.4 -7.9 2.3 -10.9 -0.4 -1.7 -1.6 -9.9 -18.8 -24.6 -51.9 -12.1 -27.3 -22 -50.4 -22 -51.4 0 -2.5 57.1 -115.6 59.7 -118.2 1.9 -2 3.3 -2.3 10 -2.3 4.3 0 8.4 -0.4 9.1 -0.8 0.9 -0.6 1.2 -3.5 1 -10.8 l-0.3 -9.9 -42 -0.3 c-23.1 -0.1 -43 0 -44.2 0.3 -2.2 0.5 -2.3 1 -2.3 10.4 0 8.1 0.3 10 1.6 10.5 0.9 0.3 6.5 0.6 12.5 0.6 10.3 0 11.1 0.1 13.4 2.5 2.3 2.3 3 4.5 2.5 8.8 -0.3 3 -26.1 60.1 -28.3 62.4 -4.6 5.1 -12.1 3.3 -15.7 -3.8 -6.3 -12.3 -26 -58.6 -26 -61.1 0 -1.9 1 -4 2.9 -5.9 2.6 -2.5 3.7 -2.9 8.8 -2.9 3.2 0 6.4 -0.4 7.1 -0.8 0.9 -0.6 1.2 -3.5 1 -10.8 l-0.3 -9.9 -44.4 -0.3 c-31.9 -0.1 -44.8 0.1 -45.7 0.9 -1 0.8 -1.4 3.7 -1.4 10 0 10.5 0.4 10.9 10.8 10.9 5.2 0 7.5 0.5 9.1 1.7 3.6 3 63.1 133.5 63.1 138.4 0 3.5 -34.9 80.4 -38 83.6 -2.7 2.8 -8.4 3.1 -11.9 0.7 -1.2 -0.9 -3.2 -3.7 -4.3 -6.3 -22.9 -52.9 -67 -158.7 -78.2 -187.5 -8.5 -21.8 -8.9 -24.6 -3.9 -28.6 2.3 -1.8 4 -2 16.4 -2 7.5 0 14.4 -0.3 15.3 -0.6 2.4 -0.9 2.4 -19.9 0 -20.8 -2 -0.8 -114.8 -0.8 -116.8 0 -2.4 0.9 -2.4 19.9 0 20.8 0.9 0.3 6.7 0.6 12.9 0.6 10.4 0 11.6 0.2 13.9 2.3 1.8 1.6 19.6 43.3 62.6 146.2 33.1 79.2 61 145.8 62.1 148 5.6 10.8 12.8 13.6 20.5 7.9z m17.7 -138.5 l11.9 -26.1 -17.8 -39.2 c-9.8 -21.5 -22.2 -48.5 -27.6 -60.1 l-9.7 -21 -6 -0.7 c-3.3 -0.4 -7.3 -1.4 -8.9 -2.2 -2.7 -1.4 -3.3 -1.4 -6.3 0.2 -2.1 1 -6.5 1.8 -11.6 2 -4.6 0.2 -8.3 0.6 -8.3 0.9 0 2.4 71 172.2 72 172.3 0.3 0 5.8 -11.8 12.3 -26.1z m154.6 -61.7 c17.6 -46.3 32.1 -84.5 32.1 -84.7 0 -0.3 -4.2 -0.5 -9.2 -0.5 -6.8 0 -10.4 -0.5 -13.3 -1.9 -3.6 -1.6 -4.3 -1.6 -7.5 -0.3 -1.9 0.8 -6.2 1.8 -9.4 2.1 l-5.9 0.6 -25.6 50.6 -25.6 50.5 15.4 34.8 c8.5 19 15.8 34.3 16.2 33.9 0.3 -0.4 15.1 -38.7 32.8 -85.1z m-93.1 -73.4 l5 -11.3 -4.7 -0.6 c-2.6 -0.4 -6 -1.3 -7.6 -2.2 -2.7 -1.4 -3.3 -1.3 -6.2 0.1 l-3.2 1.7 5.2 11.8 c2.9 6.4 5.5 11.7 5.8 11.7 0.4 0 2.9 -5.1 5.7 -11.2z"/>
 </g>
</svg>