<?xml version="1.0" encoding="utf-8"?>
<!DOCTYPE svg PUBLIC "-//W3C//DTD SVG 1.0//EN" "http://www.w3.org/TR/2001/REC-SVG-20010904/DTD/svg10.dtd">
<svg version="1.0" xmlns="http://www.w3.org/2000/svg" width="512px" height="512px" viewBox="0 0 512 512" preserveAspectRatio="xMidYMid meet">
 <g fill="#ffffff">
 </g>
 <g fill="#f7f7f7">
 </g>
 <g fill="#efefef">
  <path d="M101.6 262.1 c-0.3 -0.4 -14.3 -35.6 -31 -78.2 l-30.5 -77.4 -17.1 -0.5 -17.2 -0.5 -2.3 -2.7 c-3 -3.5 -3.8 -9.2 -3.3 -21.6 0.4 -10.3 1.5 -13.2 5.7 -15.4 3.5 -1.9 112.7 -1.9 116.2 0 4.2 2.2 5.3 5.1 5.7 15.4 0.6 13.4 -0.3 18.5 -3.8 22 -2.7 2.6 -3.4 2.8 -10.9 2.8 -4.5 0 -8.1 0.2 -8.1 0.5 0 0.3 8.6 22 19.1 48.2 10.5 26.3 20 49.9 21 52.6 l1.9 4.7 -2.5 0 c-2 0 -2.5 -0.5 -2.5 -2.5 0 -1.4 -0.4 -2.5 -1 -2.5 -0.5 0 -1 -1.1 -1 -2.5 0 -1.4 -0.4 -2.5 -1 -2.5 -0.5 0 -1 -1.1 -1 -2.5 0 -1.4 -0.4 -2.5 -0.8 -2.5 -0.5 0 -7.8 14.9 -16.2 33 -11.7 25.2 -15.7 33 -17.1 33 -1 0 -2 -0.4 -2.3 -0.9z"/>
  <path d="M142.8 103.1 l-3.3 -2.9 -0.3 -13.9 c-0.2 -12.3 -0.1 -14.1 1.7 -17 1.3 -2.1 3.3 -3.5 5.8 -4.2 5.1 -1.5 106.4 -1.5 111.5 -0.1 4.9 1.4 7.8 5.2 7.8 10.1 0 4.8 -1.7 5.1 -5.8 0.9 l-3 -3 -31.5 0 -31.4 0 -7.6 16.3 -7.7 16.2 -16.4 0.3 -16.5 0.2 -3.3 -2.9z"/>
  <path d="M379.5 78.1 c-1.8 -5.8 -5.5 -6.2 -52 -5.4 l-41 0.6 -2.8 2.9 c-4.1 4 -5.7 3.7 -5.7 -1.3 0 -5.4 3.9 -9.5 10.1 -10.4 2.4 -0.3 23.4 -0.5 46.6 -0.3 l42.3 0.3 3 3 c2.1 2.2 3.2 4.4 3.6 7.8 0.6 4.3 0.5 4.7 -1.4 4.7 -1.2 0 -2.3 -0.8 -2.7 -1.9z"/>
  <path d="M406 74.4 c0 -4.9 4.2 -9 10.1 -9.9 2.4 -0.3 23.4 -0.5 46.6 -0.3 l42.3 0.3 2.9 3 c3.3 3.3 5.3 10.5 3 10.5 -0.8 0 -3.4 -1.4 -5.8 -3 l-4.4 -3 -40.2 0 c-22.1 0 -41.7 0.3 -43.4 0.6 -1.7 0.4 -4.1 1.7 -5.4 3 -3.4 3.6 -5.7 3.1 -5.7 -1.2z"/>
 </g>
 <g fill="#e6e6e6">
  <path d="M174.1 444.1 c-1 -1 -2.8 -4.3 -3.9 -7.2 -1.1 -3 -19.4 -49.5 -40.6 -103.3 -21.3 -53.8 -38.5 -98.1 -38.3 -98.3 0.2 -0.2 2.6 5.3 5.3 12.2 2.7 6.9 5.2 12.5 5.5 12.5 0.3 0 8.2 -16.4 17.5 -36.4 11.2 -24.1 17.2 -36 17.7 -35 0.4 0.7 13.1 32.1 28.1 69.6 l27.4 68.2 4 -8 c8.6 -17.1 35.5 -74 35.5 -74.9 0 -0.5 -12.1 -31.7 -26.8 -69.2 -21.6 -54.9 -27.3 -68.3 -28.7 -68.3 -1 0 -1.8 -0.3 -1.8 -0.6 0 -0.4 3.7 -8.5 8.1 -18 l8.2 -17.4 34.4 0 34.5 0 2.9 2.9 c2.9 2.9 2.9 3.1 2.9 14.1 0 16.5 -2 19 -15.2 19 -6.8 0 -7 0.1 -6.4 2.3 1.3 5.3 23.5 59.2 24.2 59.1 0.9 -0.2 29.4 -58.9 29.4 -60.5 0 -0.5 -2.7 -0.9 -6.1 -0.9 -6.5 0 -9.4 -1 -12.1 -4.4 -1.4 -1.7 -1.8 -4.2 -1.8 -13.9 0 -11.6 0.1 -11.9 2.8 -14.6 l2.7 -2.8 44 -0.7 c24.2 -0.4 44.7 -0.5 45.5 -0.2 0.8 0.2 2.8 0.7 4.3 1 4.7 1.1 6.7 5.7 6.7 15.6 0 10.4 -1.3 15.3 -4.7 18 -2.3 1.8 -4 2 -14.3 2 l-11.7 0 -30.2 62.2 c-25.9 53.4 -30.1 62.6 -29.2 64.5 0.9 1.9 -1.6 7.6 -17 39 -10 20.3 -18.3 36.2 -18.6 35.6 -0.3 -0.7 -0.8 -1.3 -1.2 -1.3 -0.5 0 -15.6 30.5 -33.6 67.8 -18.1 37.2 -33.7 68.7 -34.8 70 -2.7 3 -11.7 3.2 -14.6 0.3z"/>
  <path d="M313.1 444.3 c-1.3 -1.2 -11.1 -24.9 -27 -65.3 l-25 -63.5 5.7 -5.7 c4.6 -4.7 6.3 -5.8 8.9 -5.8 2.5 0 3.3 0.4 3.3 1.7 0 1.1 5.9 -4.2 15.3 -13.5 8.4 -8.3 15.7 -15.2 16.3 -15.2 0.6 0 5.4 11.1 10.8 24.6 5.4 13.5 10.2 24.2 10.6 23.7 0.8 -0.9 105 -217.9 105 -218.8 0 -0.3 -5.2 -0.5 -11.6 -0.5 -18.1 0 -19.3 -1.2 -19.4 -18.6 0 -11.6 0.1 -12.2 2.5 -14.6 1.4 -1.4 3.9 -2.8 5.6 -3.2 1.8 -0.3 22.5 -0.6 46.1 -0.6 36.1 0 43.4 0.2 45.8 1.5 5 2.6 6 5 6 15 0 16.4 -2.1 19.7 -13.3 20.5 l-7 0.5 -81.7 168.4 c-44.9 92.6 -82.4 169 -83.5 169.7 -2.7 2 -10.8 1.8 -13.4 -0.3z"/>
 </g>
 <g fill="#dedede">
  <path d="M317 446.8 c-1.3 -0.5 -3.2 -1.6 -4.1 -2.4 -0.9 -0.8 -13.7 -32.3 -28.5 -69.9 -14.8 -37.7 -27.1 -68.5 -27.4 -68.5 -0.3 0 -3.7 6.3 -7.5 14 -3.8 7.6 -7 13.8 -7.2 13.6 -0.2 -0.1 11.1 -23.4 25.1 -51.7 l25.4 -51.4 1.5 3.5 c0.8 1.9 5.3 13 10 24.6 l8.4 21.2 -22.4 22.3 -22.4 22.4 4.1 -9 4.1 -9 -5.9 5.8 -5.9 5.8 11.9 30.7 c6.6 16.9 16.9 43.7 23.1 59.5 6.8 17.7 12.1 29.8 13.5 31.2 3.3 3.3 7.4 4 11.6 2 3.3 -1.6 5 -4.7 25.6 -46.3 12.2 -24.6 28.5 -57.6 36.2 -73.5 7.8 -15.8 14.3 -28.6 14.4 -28.4 0.6 0.6 -71.7 149.2 -73.5 151 -2.3 2.4 -7.1 3.6 -10.1 2.5z"/>
  <path d="M175.8 445.9 c-1 -0.5 -2.3 -1.9 -2.9 -3.1 -1.9 -3.5 -30 -75.1 -29.6 -75.4 0.2 -0.2 6.5 15.3 14.1 34.4 14.7 36.8 16.4 39.8 22.6 40.8 7.7 1.1 7.7 1.2 35.2 -54.6 13.8 -28 25.3 -50.9 25.5 -50.7 0.7 0.7 -50.6 104.9 -52.7 107.3 -2.5 2.6 -8.8 3.3 -12.2 1.3z"/>
  <path d="M414.1 265.5 c0 -0.5 0.6 -2.1 1.4 -3.5 0.8 -1.4 1.4 -2 1.4 -1.5 0 0.6 -0.6 2.1 -1.4 3.5 -0.8 1.4 -1.4 2.1 -1.4 1.5z"/>
 </g>
 <g fill="#d6d6d6">
  <path d="M278.1 358.8 c-0.5 -1.3 -4.9 -12.6 -9.9 -25.3 -11.7 -29.7 -11.5 -29.2 -10.3 -28 0.5 0.6 3 6.2 5.4 12.5 6.9 17.9 12.3 32 14.6 37.8 1.1 2.8 1.8 5.2 1.6 5.2 -0.3 0 -0.9 -1 -1.4 -2.2z"/>
 </g>
 <g fill="#cecece">
 </g>
 <g fill="#c5c5c5">
 </g>
 <g fill="#bdbdbd">
 </g>
 <g fill="#b5b5b5">
 </g>
 <g fill="#adadad">
 </g>
 <g fill="#a5a5a5">
 </g>
 <g fill="#9c9c9c">
 </g>
 <g fill="#949494">
 </g>
 <g fill="#8c8c8c">
 </g>
 <g fill="#848484">
 </g>
 <g fill="#7b7b7b">
 </g>
 <g fill="#737373">
 </g>
 <g fill="#6b6b6b">
 </g>
 <g fill="#636363">
 </g>
 <g fill="#5a5a5a">
 </g>
 <g fill="#525252">
 </g>
 <g fill="#4a4a4a">
 </g>
 <g fill="#424242">
 </g>
 <g fill="#3a3a3a">
 </g>
 <g fill="#313131">
 </g>
 <g fill="#292929">
 </g>
 <g fill="#212121">
 </g>
 <g fill="#191919">
 </g>
 <g fill="#101010">
 </g>
 <g fill="#080808">
 </g>
 <g fill="#000000">
 </g>
<g opacity="0.5" transform="rotate(-45, 256.0, 256.0)">
</g>
</svg>